<svg version="1.1" id="Layer_1" xmlns="http://www.w3.org/2000/svg" xmlns:xlink="http://www.w3.org/1999/xlink" x="0px" y="0px"
	 width="100%" viewBox="0 0 431 389" enable-background="new 0 0 431 389" xml:space="preserve">
<path fill="#181A1B" opacity="1.000000" stroke="none" 
	d="
M304.000000,390.000000 
	C202.697403,390.000000 101.894806,390.000000 1.046104,390.000000 
	C1.046104,260.403595 1.046104,130.807190 1.046104,1.105391 
	C144.552536,1.105391 288.105194,1.105391 431.828918,1.105391 
	C431.828918,130.666473 431.828918,260.333221 431.828918,390.000000 
	C389.473907,390.000000 346.986969,390.000000 304.000000,390.000000 
M322.892273,174.059601 
	C322.960480,161.468475 323.548889,148.852173 322.941620,136.293716 
	C322.400360,125.100258 318.815430,114.451447 313.765503,104.421303 
	C306.036530,89.069977 291.977844,81.948486 277.899933,87.484055 
	C271.492981,90.003319 266.198029,95.350548 260.020660,98.954697 
	C259.894836,98.801086 259.768982,98.647484 259.281555,98.038071 
	C251.737701,92.617126 244.526108,86.639091 236.576767,81.898003 
	C222.556732,73.536263 207.440765,67.903633 190.872086,67.261551 
	C175.359161,66.660370 163.364990,73.687614 159.365295,85.956543 
	C156.580765,94.498032 157.522522,103.138451 160.354095,111.499268 
	C161.559006,115.057068 160.890091,116.388184 157.404343,118.283012 
	C151.672623,121.398750 145.335602,124.873985 141.648117,129.940338 
	C135.761703,138.027832 131.004456,147.216385 127.334587,156.554382 
	C124.083809,164.825989 123.003799,173.944977 120.879562,182.668976 
	C120.325783,184.943268 120.493683,187.984909 116.611107,187.505035 
	C109.178772,186.586426 103.235542,179.188095 104.432693,171.764236 
	C104.956184,168.517914 105.986061,165.256210 107.351273,162.258987 
	C114.187088,147.251526 125.853073,136.359543 138.573624,126.474197 
	C144.751816,121.673035 151.193726,117.211243 158.017014,112.230232 
	C156.872772,112.144440 156.516525,112.015709 156.240875,112.113701 
	C154.514999,112.727287 152.779984,113.328125 151.097504,114.048775 
	C135.953964,120.535126 121.779602,128.795944 110.412178,140.727844 
	C103.984680,147.474503 98.149170,155.381577 94.222031,163.782684 
	C87.264313,178.666931 93.877220,193.903137 108.872795,200.674896 
	C112.486954,202.306992 116.377022,203.465073 120.253166,204.341629 
	C124.152481,205.223450 125.502815,207.104355 124.716812,211.048431 
	C123.305664,218.129517 123.951599,225.304321 127.368134,231.516891 
	C132.223328,240.345505 137.448883,249.126266 143.703171,256.982544 
	C149.145538,263.818939 156.199005,269.382080 162.616776,275.426971 
	C164.561600,277.258759 165.601456,278.842987 163.446808,281.298035 
	C158.443878,286.998413 149.201782,288.118347 143.705872,282.866394 
	C140.038925,279.362213 136.750275,275.187439 134.270477,270.764343 
	C124.734352,253.755325 122.505554,234.860962 120.922813,215.854980 
	C120.711029,213.311768 120.403221,210.776566 120.139885,208.237656 
	C118.875183,209.516876 118.283409,210.768829 118.284401,212.020325 
	C118.295441,225.969330 117.484482,240.001236 118.741302,253.843155 
	C119.921280,266.838806 124.455528,279.159119 132.942810,289.598175 
	C140.412018,298.784973 151.899414,302.451202 162.971497,298.334747 
	C167.553162,296.631348 172.045761,294.014648 175.764343,290.854767 
	C179.412842,287.754486 181.896774,288.195953 185.220276,290.887787 
	C195.756119,299.421173 207.182480,306.537262 219.884125,311.411987 
	C232.568863,316.280182 245.424866,320.058411 259.331451,317.870270 
	C271.908112,315.891418 281.645447,306.890137 282.801575,294.208466 
	C283.376587,287.901367 281.788513,281.397034 281.615967,274.781738 
	C282.042786,274.560730 282.469604,274.339722 283.656311,273.991272 
	C306.237732,265.635284 326.124237,253.313141 340.592743,233.672516 
	C348.500458,222.938004 353.079437,211.117447 346.252441,197.871246 
	C342.743103,191.062180 336.819733,186.847443 329.570221,183.309280 
	C327.331818,180.502457 325.093445,177.695618 322.892273,174.059601 
z"/>
<path fill="#2E1C65" opacity="1.000000" stroke="none" 
	d="
M329.960968,183.816330 
	C336.819733,186.847443 342.743103,191.062180 346.252441,197.871246 
	C353.079437,211.117447 348.500458,222.938004 340.592743,233.672516 
	C326.124237,253.313141 306.237732,265.635284 283.448059,273.752319 
	C285.760040,271.622559 288.355927,269.823700 290.787384,267.824799 
	C300.669800,259.700531 310.911285,251.951691 320.227234,243.218353 
	C328.173676,235.768906 334.158295,226.627319 336.408905,215.615570 
	C337.975433,207.950607 334.250122,201.535049 327.036987,199.045197 
	C321.940277,197.285919 321.338867,197.929474 319.975891,203.172607 
	C316.931458,214.883591 314.285767,226.786789 310.050354,238.076218 
	C305.231567,250.920700 297.683380,262.272614 283.883087,267.258514 
	C279.018951,269.015869 278.941376,271.307983 281.178925,274.981934 
	C281.788513,281.397034 283.376587,287.901367 282.801575,294.208466 
	C281.645447,306.890137 271.908112,315.891418 259.331451,317.870270 
	C245.424866,320.058411 232.568863,316.280182 219.884125,311.411987 
	C207.182480,306.537262 195.756119,299.421173 185.220276,290.887787 
	C181.896774,288.195953 179.412842,287.754486 175.764343,290.854767 
	C172.045761,294.014648 167.553162,296.631348 162.971497,298.334747 
	C151.899414,302.451202 140.412018,298.784973 132.942810,289.598175 
	C124.455528,279.159119 119.921280,266.838806 118.741302,253.843155 
	C117.484482,240.001236 118.295441,225.969330 118.284401,212.020325 
	C118.283409,210.768829 118.875183,209.516876 120.139885,208.237656 
	C120.403221,210.776566 120.711029,213.311768 120.922813,215.854980 
	C122.505554,234.860962 124.734352,253.755325 134.270477,270.764343 
	C136.750275,275.187439 140.038925,279.362213 143.705872,282.866394 
	C149.201782,288.118347 158.443878,286.998413 163.446808,281.298035 
	C165.601456,278.842987 164.561600,277.258759 162.616776,275.426971 
	C156.199005,269.382080 149.145538,263.818939 143.703171,256.982544 
	C137.448883,249.126266 132.223328,240.345505 127.368134,231.516891 
	C123.951599,225.304321 123.305664,218.129517 124.716812,211.048431 
	C125.502815,207.104355 124.152481,205.223450 120.253166,204.341629 
	C116.377022,203.465073 112.486954,202.306992 108.872795,200.674896 
	C93.877220,193.903137 87.264313,178.666931 94.222031,163.782684 
	C98.149170,155.381577 103.984680,147.474503 110.412178,140.727844 
	C121.779602,128.795944 135.953964,120.535126 151.097504,114.048775 
	C152.779984,113.328125 154.514999,112.727287 156.240875,112.113701 
	C156.516525,112.015709 156.872772,112.144440 158.017014,112.230232 
	C151.193726,117.211243 144.751816,121.673035 138.573624,126.474197 
	C125.853073,136.359543 114.187088,147.251526 107.351273,162.258987 
	C105.986061,165.256210 104.956184,168.517914 104.432693,171.764236 
	C103.235542,179.188095 109.178772,186.586426 116.611107,187.505035 
	C120.493683,187.984909 120.325783,184.943268 120.879562,182.668976 
	C123.003799,173.944977 124.083809,164.825989 127.334587,156.554382 
	C131.004456,147.216385 135.761703,138.027832 141.648117,129.940338 
	C145.335602,124.873985 151.672623,121.398750 157.404343,118.283012 
	C160.890091,116.388184 161.559006,115.057068 160.354095,111.499268 
	C157.522522,103.138451 156.580765,94.498032 159.365295,85.956543 
	C163.364990,73.687614 175.359161,66.660370 190.872086,67.261551 
	C207.440765,67.903633 222.556732,73.536263 236.576767,81.898003 
	C244.526108,86.639091 251.737701,92.617126 259.167419,98.177841 
	C257.690552,97.708260 256.347748,97.048805 254.962021,96.497360 
	C242.159958,91.402931 229.549820,85.719398 216.481735,81.433235 
	C205.505859,77.833260 193.898727,77.010048 182.550491,80.416611 
	C174.570114,82.812210 171.195892,89.366623 172.680405,97.581650 
	C173.437195,101.769676 175.115524,102.859489 179.149750,101.062317 
	C192.043625,95.318375 205.655090,92.233086 219.699539,91.401375 
	C231.897110,90.679031 243.736725,92.067833 253.306549,100.817413 
	C256.619751,103.846611 258.525146,102.345604 260.398682,99.415047 
	C266.198029,95.350548 271.492981,90.003319 277.899933,87.484055 
	C291.977844,81.948486 306.036530,89.069977 313.765503,104.421303 
	C318.815430,114.451447 322.400360,125.100258 322.941620,136.293716 
	C323.548889,148.852173 322.960480,161.468475 322.755280,174.675705 
	C322.307373,175.797653 321.996460,176.303482 321.121826,177.726425 
	C320.738464,174.926056 320.471344,173.171341 320.261597,171.409760 
	C319.161774,162.171204 318.557037,152.842499 316.876495,143.711426 
	C314.173584,129.025223 309.689575,114.946724 298.613251,104.050659 
	C292.639435,98.174088 285.982910,97.878952 279.333252,102.976639 
	C274.848907,106.414383 275.048279,107.443459 279.136719,111.309013 
	C286.721283,118.480026 294.506378,125.533463 301.311371,133.410446 
	C309.775848,143.208298 316.066010,154.376007 316.832092,167.801224 
	C317.068176,171.938644 315.332214,177.604431 317.423126,179.860291 
	C320.011841,182.653214 325.643768,182.625488 329.960968,183.816330 
M252.503235,259.004822 
	C243.356888,250.817429 234.204208,242.637115 225.067535,234.438950 
	C221.745209,231.457886 218.871521,231.937668 215.400330,234.676605 
	C205.879837,242.188736 198.704926,251.156723 194.959259,262.885925 
	C192.943848,269.197083 194.160751,275.101929 199.898788,278.498047 
	C203.276245,280.497040 207.085068,282.061249 210.902451,282.972137 
	C227.747620,286.991638 244.274170,284.148987 260.710968,280.130890 
	C264.332764,279.245453 264.969940,277.252258 263.054657,274.346802 
	C259.768738,269.362091 256.343964,264.468994 252.503235,259.004822 
M208.205750,145.310196 
	C210.700470,147.242905 213.332672,149.024643 215.658524,151.142776 
	C219.388168,154.539322 222.387192,153.655823 226.082413,150.713531 
	C236.012863,142.806458 242.912628,132.974991 246.953888,120.976334 
	C248.572678,116.170105 247.110245,112.223610 243.636017,109.335045 
	C240.777145,106.958122 237.274933,104.988075 233.732269,103.862251 
	C215.700058,98.131844 197.866333,101.665169 180.105743,105.653389 
	C177.499191,106.238716 176.554779,108.022598 177.765671,110.557129 
	C178.623550,112.352753 179.551544,114.125389 180.585953,115.824448 
	C187.609970,127.361710 197.314499,136.415863 208.205750,145.310196 
M266.417938,119.987511 
	C259.011108,135.321564 255.703705,151.685165 253.867142,168.486084 
	C253.389511,172.855545 254.916382,174.813461 258.750824,176.283768 
	C269.658569,180.466293 280.578888,182.037430 292.415771,180.503647 
	C300.489410,179.457489 305.311920,172.949463 304.509277,165.853104 
	C304.008911,161.429214 303.236572,156.911392 301.722748,152.749847 
	C296.868134,139.404327 288.464813,128.271088 278.857239,118.010109 
	C271.827972,110.502754 271.763153,110.563438 266.417938,119.987511 
M153.044861,134.447571 
	C137.799927,147.528824 131.264694,165.455811 125.589615,183.851700 
	C124.272545,188.121002 126.685402,189.044815 130.306442,189.138489 
	C149.672562,189.639542 167.175583,182.914093 184.306229,175.013748 
	C185.879776,174.288071 187.268051,171.056686 187.143188,169.090378 
	C186.268036,155.307358 180.861725,143.298264 171.148529,133.544128 
	C169.134033,131.521133 165.249634,130.453598 162.277817,130.547806 
	C159.360596,130.640259 156.508026,132.772705 153.044861,134.447571 
M258.758575,236.611877 
	C261.451569,240.581909 264.079926,244.597717 266.851166,248.512375 
	C272.526947,256.529968 279.270935,257.688690 287.083282,251.691696 
	C290.347504,249.185989 293.408020,246.264145 296.020020,243.086700 
	C305.390717,231.687576 310.459015,218.112961 314.828156,204.269043 
	C317.101105,197.067017 316.405457,196.378433 308.697540,196.538452 
	C289.986603,196.926880 272.771851,202.865860 256.213654,210.984055 
	C254.839905,211.657578 253.479156,214.507278 253.762939,216.040344 
	C254.999710,222.721680 256.846954,229.289993 258.758575,236.611877 
M158.710144,263.784576 
	C160.648621,266.062531 162.517700,268.404297 164.540543,270.604706 
	C168.307449,274.702179 169.314636,274.637268 172.202896,269.844513 
	C182.263504,253.150040 185.442245,234.522659 186.923920,215.521271 
	C187.058945,213.789749 184.902374,210.983063 183.119553,210.145813 
	C172.544128,205.179443 161.597733,202.888168 149.730637,205.277145 
	C139.442184,207.348312 136.113144,210.705475 136.760086,221.338867 
	C136.939514,224.288101 137.619263,227.263000 138.471710,230.105499 
	C142.277145,242.794739 149.762466,253.326736 158.710144,263.784576 
M199.702667,291.895355 
	C195.442123,289.362427 191.253357,286.693359 186.874619,284.384644 
	C185.658386,283.743347 183.878937,284.170258 182.357895,284.107086 
	C182.958817,285.352081 183.223099,287.198303 184.211304,287.751617 
	C198.380173,295.685089 213.254501,301.982269 229.135330,305.529510 
	C238.456818,307.611603 247.965851,308.406372 257.343567,305.679413 
	C266.274689,303.082306 270.013519,296.546478 268.247955,287.737518 
	C267.489685,283.954163 265.831787,282.998779 262.335052,284.601166 
	C259.767487,285.777740 257.082611,286.731689 254.388977,287.594238 
	C236.767059,293.237122 219.008377,297.390930 199.702667,291.895355 
M232.652008,193.496124 
	C232.214188,185.232117 229.634796,182.095703 221.531464,179.974030 
	C218.278671,179.122360 209.142578,184.982727 208.580154,188.281662 
	C207.306427,195.753036 209.395691,200.076141 216.152802,203.951004 
	C222.982635,207.867584 232.279846,202.455582 232.652008,193.496124 
z"/>
<path fill="#191A1D" opacity="1.000000" stroke="none" 
	d="
M329.765594,183.562805 
	C325.643768,182.625488 320.011841,182.653214 317.423126,179.860291 
	C315.332214,177.604431 317.068176,171.938644 316.832092,167.801224 
	C316.066010,154.376007 309.775848,143.208298 301.311371,133.410446 
	C294.506378,125.533463 286.721283,118.480026 279.136719,111.309013 
	C275.048279,107.443459 274.848907,106.414383 279.333252,102.976639 
	C285.982910,97.878952 292.639435,98.174088 298.613251,104.050659 
	C309.689575,114.946724 314.173584,129.025223 316.876495,143.711426 
	C318.557037,152.842499 319.161774,162.171204 320.261597,171.409760 
	C320.471344,173.171341 320.738464,174.926056 321.121826,177.726425 
	C321.996460,176.303482 322.307373,175.797653 322.736664,175.090302 
	C325.093445,177.695618 327.331818,180.502457 329.765594,183.562805 
z"/>
<path fill="#191A1D" opacity="1.000000" stroke="none" 
	d="
M281.397461,274.881836 
	C278.941376,271.307983 279.018951,269.015869 283.883087,267.258514 
	C297.683380,262.272614 305.231567,250.920700 310.050354,238.076218 
	C314.285767,226.786789 316.931458,214.883591 319.975891,203.172607 
	C321.338867,197.929474 321.940277,197.285919 327.036987,199.045197 
	C334.250122,201.535049 337.975433,207.950607 336.408905,215.615570 
	C334.158295,226.627319 328.173676,235.768906 320.227234,243.218353 
	C310.911285,251.951691 300.669800,259.700531 290.787384,267.824799 
	C288.355927,269.823700 285.760040,271.622559 283.068085,273.816040 
	C282.469604,274.339722 282.042786,274.560730 281.397461,274.881836 
z"/>
<path fill="#181A1C" opacity="1.000000" stroke="none" 
	d="
M252.740356,259.271118 
	C256.343964,264.468994 259.768738,269.362091 263.054657,274.346802 
	C264.969940,277.252258 264.332764,279.245453 260.710968,280.130890 
	C244.274170,284.148987 227.747620,286.991638 210.902451,282.972137 
	C207.085068,282.061249 203.276245,280.497040 199.898788,278.498047 
	C194.160751,275.101929 192.943848,269.197083 194.959259,262.885925 
	C198.704926,251.156723 205.879837,242.188736 215.400330,234.676605 
	C218.871521,231.937668 221.745209,231.457886 225.067535,234.438950 
	C234.204208,242.637115 243.356888,250.817429 252.740356,259.271118 
z"/>
<path fill="#181A1C" opacity="1.000000" stroke="none" 
	d="
M207.916595,145.105072 
	C197.314499,136.415863 187.609970,127.361710 180.585953,115.824448 
	C179.551544,114.125389 178.623550,112.352753 177.765671,110.557129 
	C176.554779,108.022598 177.499191,106.238716 180.105743,105.653389 
	C197.866333,101.665169 215.700058,98.131844 233.732269,103.862251 
	C237.274933,104.988075 240.777145,106.958122 243.636017,109.335045 
	C247.110245,112.223610 248.572678,116.170105 246.953888,120.976334 
	C242.912628,132.974991 236.012863,142.806458 226.082413,150.713531 
	C222.387192,153.655823 219.388168,154.539322 215.658524,151.142776 
	C213.332672,149.024643 210.700470,147.242905 207.916595,145.105072 
z"/>
<path fill="#181A1C" opacity="1.000000" stroke="none" 
	d="
M266.594269,119.660599 
	C271.763153,110.563438 271.827972,110.502754 278.857239,118.010109 
	C288.464813,128.271088 296.868134,139.404327 301.722748,152.749847 
	C303.236572,156.911392 304.008911,161.429214 304.509277,165.853104 
	C305.311920,172.949463 300.489410,179.457489 292.415771,180.503647 
	C280.578888,182.037430 269.658569,180.466293 258.750824,176.283768 
	C254.916382,174.813461 253.389511,172.855545 253.867142,168.486084 
	C255.703705,151.685165 259.011108,135.321564 266.594269,119.660599 
z"/>
<path fill="#181A1C" opacity="1.000000" stroke="none" 
	d="
M153.335968,134.228729 
	C156.508026,132.772705 159.360596,130.640259 162.277817,130.547806 
	C165.249634,130.453598 169.134033,131.521133 171.148529,133.544128 
	C180.861725,143.298264 186.268036,155.307358 187.143188,169.090378 
	C187.268051,171.056686 185.879776,174.288071 184.306229,175.013748 
	C167.175583,182.914093 149.672562,189.639542 130.306442,189.138489 
	C126.685402,189.044815 124.272545,188.121002 125.589615,183.851700 
	C131.264694,165.455811 137.799927,147.528824 153.335968,134.228729 
z"/>
<path fill="#181A1C" opacity="1.000000" stroke="none" 
	d="
M258.615540,236.255615 
	C256.846954,229.289993 254.999710,222.721680 253.762939,216.040344 
	C253.479156,214.507278 254.839905,211.657578 256.213654,210.984055 
	C272.771851,202.865860 289.986603,196.926880 308.697540,196.538452 
	C316.405457,196.378433 317.101105,197.067017 314.828156,204.269043 
	C310.459015,218.112961 305.390717,231.687576 296.020020,243.086700 
	C293.408020,246.264145 290.347504,249.185989 287.083282,251.691696 
	C279.270935,257.688690 272.526947,256.529968 266.851166,248.512375 
	C264.079926,244.597717 261.451569,240.581909 258.615540,236.255615 
z"/>
<path fill="#181A1C" opacity="1.000000" stroke="none" 
	d="
M158.476898,263.516052 
	C149.762466,253.326736 142.277145,242.794739 138.471710,230.105499 
	C137.619263,227.263000 136.939514,224.288101 136.760086,221.338867 
	C136.113144,210.705475 139.442184,207.348312 149.730637,205.277145 
	C161.597733,202.888168 172.544128,205.179443 183.119553,210.145813 
	C184.902374,210.983063 187.058945,213.789749 186.923920,215.521271 
	C185.442245,234.522659 182.263504,253.150040 172.202896,269.844513 
	C169.314636,274.637268 168.307449,274.702179 164.540543,270.604706 
	C162.517700,268.404297 160.648621,266.062531 158.476898,263.516052 
z"/>
<path fill="#181A1B" opacity="1.000000" stroke="none" 
	d="
M260.209656,99.184875 
	C258.525146,102.345604 256.619751,103.846611 253.306549,100.817413 
	C243.736725,92.067833 231.897110,90.679031 219.699539,91.401375 
	C205.655090,92.233086 192.043625,95.318375 179.149750,101.062317 
	C175.115524,102.859489 173.437195,101.769676 172.680405,97.581650 
	C171.195892,89.366623 174.570114,82.812210 182.550491,80.416611 
	C193.898727,77.010048 205.505859,77.833260 216.481735,81.433235 
	C229.549820,85.719398 242.159958,91.402931 254.962021,96.497360 
	C256.347748,97.048805 257.690552,97.708260 259.348206,98.405746 
	C259.768982,98.647484 259.894836,98.801086 260.209656,99.184875 
z"/>
<path fill="#181A1B" opacity="1.000000" stroke="none" 
	d="
M200.084274,292.007843 
	C219.008377,297.390930 236.767059,293.237122 254.388977,287.594238 
	C257.082611,286.731689 259.767487,285.777740 262.335052,284.601166 
	C265.831787,282.998779 267.489685,283.954163 268.247955,287.737518 
	C270.013519,296.546478 266.274689,303.082306 257.343567,305.679413 
	C247.965851,308.406372 238.456818,307.611603 229.135330,305.529510 
	C213.254501,301.982269 198.380173,295.685089 184.211304,287.751617 
	C183.223099,287.198303 182.958817,285.352081 182.357895,284.107086 
	C183.878937,284.170258 185.658386,283.743347 186.874619,284.384644 
	C191.253357,286.693359 195.442123,289.362427 200.084274,292.007843 
z"/>
<path fill="#191A1D" opacity="1.000000" stroke="none" 
	d="
M232.658875,193.917389 
	C232.279846,202.455582 222.982635,207.867584 216.152802,203.951004 
	C209.395691,200.076141 207.306427,195.753036 208.580154,188.281662 
	C209.142578,184.982727 218.278671,179.122360 221.531464,179.974030 
	C229.634796,182.095703 232.214188,185.232117 232.658875,193.917389 
z"/>
</svg>